<mxfile host="app.diagrams.net" agent="Mozilla/5.0 (Windows NT 10.0; Win64; x64) AppleWebKit/537.36 (KHTML, like Gecko) Chrome/128.0.0.0 Safari/537.36" version="24.7.15">
  <diagram name="Page-1" id="QxGQDab-3IP6S6Nk2ZQG">
    <mxGraphModel dx="1050" dy="557" grid="0" gridSize="10" guides="1" tooltips="1" connect="1" arrows="1" fold="1" page="1" pageScale="1" pageWidth="3300" pageHeight="4681" math="0" shadow="0">
      <root>
        <mxCell id="0" />
        <mxCell id="1" parent="0" />
        <mxCell id="e4KKcf-cGvebuYbtwIIO-2" value="Set up spark&lt;div style=&quot;font-size: 16px;&quot;&gt;&lt;br style=&quot;font-size: 16px;&quot;&gt;&lt;/div&gt;&lt;div style=&quot;font-size: 16px;&quot;&gt;1. Docker: follow the link: https://spark.apache.org/&lt;br style=&quot;font-size: 16px;&quot;&gt;&lt;/div&gt;&lt;div style=&quot;font-size: 16px;&quot;&gt;&lt;br style=&quot;font-size: 16px;&quot;&gt;&lt;/div&gt;&lt;div style=&quot;font-size: 16px;&quot;&gt;2. windows (spark, hadoop, pyspark and other packages have same version)&lt;/div&gt;&lt;div style=&quot;font-size: 16px;&quot;&gt;&amp;nbsp;&lt;span style=&quot;white-space: pre; font-size: 16px;&quot;&gt;&#x9;&lt;/span&gt;step 1: Download spark from https://spark.apache.org/downloads.html&lt;/div&gt;&lt;div style=&quot;font-size: 16px;&quot;&gt;&lt;span style=&quot;white-space: pre; font-size: 16px;&quot;&gt;&#x9;&lt;/span&gt;step 2: Extract to a folder name &#39;spark&#39;&lt;br style=&quot;font-size: 16px;&quot;&gt;&lt;/div&gt;&lt;div style=&quot;font-size: 16px;&quot;&gt;&lt;span style=&quot;white-space: pre; font-size: 16px;&quot;&gt;&#x9;&lt;/span&gt;step 3: Add environment name &#39;SPARK_HOME&#39; and path &#39;%SPARK_HOME%\bin&amp;nbsp;&lt;br style=&quot;font-size: 16px;&quot;&gt;&lt;/div&gt;&lt;div style=&quot;font-size: 16px;&quot;&gt;&lt;span style=&quot;white-space: pre; font-size: 16px;&quot;&gt;&#x9;&lt;/span&gt;step 4: Download hadoop 3.3.0 from link &#39;https://github.com/kontext-tech/winutils/tree/master&#39;&lt;br style=&quot;font-size: 16px;&quot;&gt;&lt;/div&gt;&lt;div style=&quot;font-size: 16px;&quot;&gt;&lt;span style=&quot;white-space: pre; font-size: 16px;&quot;&gt;&#x9;&lt;/span&gt;step 5: Extract and copy folder bin from hadoop 3.3.1. Save to a folder name &#39;winutlis&#39;&lt;br style=&quot;font-size: 16px;&quot;&gt;&lt;/div&gt;&lt;div style=&quot;font-size: 16px;&quot;&gt;&lt;span style=&quot;white-space: pre; font-size: 16px;&quot;&gt;&#x9;&lt;/span&gt;step 6: Add environment &#39;HADOOP_HOME&#39; and path &#39;%HADOOP_HOME%\bin&#39;&lt;br style=&quot;font-size: 16px;&quot;&gt;&lt;/div&gt;&lt;div style=&quot;font-size: 16px;&quot;&gt;&lt;span style=&quot;white-space: pre; font-size: 16px;&quot;&gt;&#x9;&lt;/span&gt;step 7: Add pyspark environment &#39;PYSPARK_PYTHON&#39;: python&lt;/div&gt;&lt;div style=&quot;font-size: 16px;&quot;&gt;&lt;br style=&quot;font-size: 16px;&quot;&gt;&lt;/div&gt;" style="text;html=1;align=left;verticalAlign=middle;whiteSpace=wrap;rounded=0;fontSize=16;spacing=11;spacingTop=0;textShadow=0;labelBorderColor=none;labelBackgroundColor=none;spacingLeft=0;" parent="1" vertex="1">
          <mxGeometry x="31" y="22" width="714" height="310" as="geometry" />
        </mxCell>
        <mxCell id="XzYTENeTjECc_HRz9cSZ-1" value="&lt;font style=&quot;font-size: 15px;&quot;&gt;Spark chia dữ liệu như thế nào?&lt;/font&gt;&lt;div style=&quot;font-size: 15px;&quot;&gt;&lt;font style=&quot;font-size: 15px;&quot;&gt;- File dữ liệu: FIle dữ liệu có thể chia nhỏ ra hay không:&lt;/font&gt;&lt;/div&gt;&lt;div style=&quot;font-size: 15px;&quot;&gt;&lt;font style=&quot;font-size: 15px;&quot;&gt;&amp;nbsp; &amp;nbsp; + No: 1 partition&lt;/font&gt;&lt;/div&gt;&lt;div style=&quot;font-size: 15px;&quot;&gt;&lt;font style=&quot;font-size: 15px;&quot;&gt;&amp;nbsp; &amp;nbsp; + Yes:&amp;nbsp; 1 file: n partition: n = MAX(file-size/128, num of cores)&lt;/font&gt;&lt;/div&gt;&lt;div style=&quot;font-size: 15px;&quot;&gt;&lt;font style=&quot;font-size: 15px;&quot;&gt;&amp;nbsp; &amp;nbsp; &amp;nbsp; &amp;nbsp; &amp;nbsp; &amp;nbsp; &amp;nbsp; &amp;nbsp; n files: n = MAX[num of files input/(128/file-size+4M), num of cores]&lt;/font&gt;&lt;/div&gt;&lt;div style=&quot;font-size: 15px;&quot;&gt;&lt;font style=&quot;font-size: 15px;&quot;&gt;&lt;span style=&quot;white-space: pre;&quot;&gt;&#x9;&lt;/span&gt;&lt;span style=&quot;white-space: pre;&quot;&gt;&#x9;&lt;/span&gt;(4M là chi phí mở file tính theo byte spark.sql.files.openCostInBytes)&lt;br&gt;&lt;/font&gt;&lt;/div&gt;&lt;div style=&quot;font-size: 15px;&quot;&gt;&lt;font style=&quot;font-size: 15px;&quot;&gt;- Cấu hình worker node:&lt;/font&gt;&lt;/div&gt;" style="text;html=1;align=left;verticalAlign=middle;whiteSpace=wrap;rounded=0;" parent="1" vertex="1">
          <mxGeometry x="38" y="314" width="713" height="196" as="geometry" />
        </mxCell>
      </root>
    </mxGraphModel>
  </diagram>
</mxfile>
